<svg version="1" xmlns="http://www.w3.org/2000/svg" width="590.667" height="590.667" viewBox="0 0 443.000000 443.000000"><path d="M212 30.6c-5.2 2.5-14.4 7-20.5 9.9C169 51.3 155.1 58 140 65.2c-8.5 4.2-20.4 9.9-26.5 12.8-42.6 20.5-47.3 22.9-47.9 24.6-.3 1.1-1 4.1-1.6 6.9-1.5 6.7-1.6 7-3.4 14.5-.8 3.6-1.7 7.6-1.9 9-.3 1.4-1.9 8.4-3.6 15.5-3.7 15.8-11 47.3-11.5 50-.3 1.7-2.3 10.4-7.2 31.6-.3 1.3-.7 3.3-.9 4.4-.2 1.1-.8 3.5-1.4 5.2-.5 1.8-.8 3.3-.6 3.3.3 0 0 1.1-.5 2.6-.6 1.4-1.2 3.9-1.5 5.7-.6 3.1-3.3 15.1-4 17.3-.3 1 2.7 5.2 12 16.9 1.7 2 23.2 29 47.9 59.9 24.6 30.8 45.4 57 46.2 58.1 1.4 2 2.6 2 88.6 2l87.1.1 25.6-32.1c14.1-17.6 26.4-32.9 27.3-34 .9-1.1 13.5-16.9 27.9-35 14.4-18.2 26.6-33.2 27.1-33.3.4-.2.6-.7.4-1.1-.3-.4-.7-1.8-1-3.2-.2-1.3-1.4-6.7-2.6-11.9-1.1-5.2-2.3-10.6-2.6-11.9-.3-1.3-1.2-5.1-2-8.5-.8-3.4-1.7-7.2-2-8.6-.3-1.4-.9-4.1-1.4-6-.5-1.9-1.1-4.6-1.4-6-.2-1.4-1.1-5.5-2-9.1-.8-3.7-1.7-7.8-2-9-.2-1.3-1.2-5.6-2.1-9.4-2.1-8.9-2.5-10.4-3.1-13.5-.3-1.4-1.1-5-1.9-8-.8-3-1.6-6.6-1.9-8-.2-1.4-1-4.8-1.6-7.5-.6-2.8-1.3-5.7-1.5-6.5-.2-.8-1.3-5.8-2.5-11s-2.9-12.4-3.7-16c-.8-3.6-1.6-7.2-1.8-8-.2-.8-.4-2.3-.4-3.3-.1-1.8-4.7-6.8-6-6.4-.3.1-5.5-2.3-11.6-5.2-6-3-17.3-8.4-25-12.1-7.7-3.7-20.5-9.9-28.5-13.7-8-3.9-19.9-9.6-26.5-12.8-6.6-3.2-18.5-8.9-26.5-12.7C228.4 28.4 223.2 26 222.3 26c-.4 0-5.1 2.1-10.3 4.6zm29.6 31c21.7 10.5 41.2 19.9 55.9 26.9 6.1 2.9 18.2 8.7 27 13 8.8 4.3 19.8 9.5 24.5 11.7 4.7 2.2 8.6 4.1 8.7 4.2.1.1 6.2 25.5 6.8 28.6.2.9 1.5 6.9 3 13.5s2.9 13.1 3.1 14.5c.3 1.4.8 3.4 1.1 4.5.4 1.1.8 2.5.9 3.1.2 1.1 3 13.5 3.9 17.4 1.4 5.8 3.7 15.8 4 17.5.2 1.1 1.1 5.1 2 9 .9 3.8 1.8 7.7 2 8.5.2.8.8 3.3 1.3 5.5.6 2.2 1.3 5.1 1.6 6.5 1.8 9.4 2.6 12.8 3.4 15 .9 2.3.3 3.4-4.9 10-3.2 4.1-6.8 8.6-7.9 9.9-1.2 1.3-4.2 5.1-6.8 8.5-5.9 7.7-7.3 9.5-9.2 11.6-.8.9-3.7 4.5-6.5 8.1-2.7 3.5-5.2 6.6-5.5 6.9-.3.3-2.1 2.5-4 5s-4.3 5.4-5.2 6.5c-.9 1.1-5.8 7.2-10.8 13.5-5 6.3-9.7 12.2-10.4 13.1-.7.9-4.8 6.1-9.1 11.5s-9.1 11.3-10.6 12.9l-2.8 3h-75c-48 0-75.3-.4-75.9-1-.5-.6-4.5-5.5-8.8-11-4.3-5.5-8.4-10.7-9.1-11.5-1.6-2-14-17.6-17.8-22.5-1.6-2.1-3.5-4.3-4-4.9-.6-.6-7.1-8.8-14.5-18.1-7.4-9.4-14-17.7-14.7-18.5-.7-.8-6.3-7.8-12.4-15.4-11-13.7-11.1-14-10.5-18 1.2-7.3 1.4-8 3.4-16.1 1.2-4.4 2.3-9.1 2.5-10.5.6-2.9.7-3.6 4.3-18.5 1.4-6.1 2.7-12.1 2.9-13.5.3-1.4 1.6-7.5 3.1-13.5 1.4-6.1 2.7-11.7 2.9-12.5.2-.8.8-3.3 1.3-5.5.6-2.2 1.3-5.1 1.6-6.5.5-2.9.7-3.8 4.2-18.5 2.9-12.2 2.7-11.6 4.4-20.1.7-3.4 1.5-6.6 1.9-7.1.3-.6 6-3.7 12.6-6.8 20.8-10 37.6-18 51-24.6 7.2-3.4 13.2-6.3 13.5-6.4.5-.1 14.3-6.8 40-19.3 9.1-4.4 17.2-8.1 18.1-8.1.9-.1 9.7 3.8 19.5 8.5z"/><path d="M204.9 95.4c-.2.3-2.4.7-4.9 1.1-22.3 3.1-39 8.3-54.9 17.2-10.6 5.9-15.3 9.5-24.3 18.6-13.9 14-19.8 27.8-20.1 46.6l-.2 10.6 122.1.3 122.1.2-.3-9.2c-.2-10.9-.8-14.9-3.5-22.5-5.3-15.6-20.3-32.6-36.9-42.2-12.8-7.4-29.5-14.1-41.5-16.7-3.3-.7-7.5-1.5-10.5-2-1.9-.3-4.6-.8-6-1.1-2.9-.6-40.5-1.4-41.1-.9zm39.1 25c1.4.4 4.1.8 6.1 1.1 5.5.7 20.4 5.2 28.4 8.6 8.7 3.6 20.4 11.1 26.8 17.3 4.4 4.3 10.6 12.9 12 16.8.5 1.5-5.9 1.7-94.9 1.7h-95.5l.7-2.2c1.9-6 11.1-16.4 20.5-23.4 5.7-4.2 22.6-12.7 27.4-13.8.6-.2 3.5-1 6.5-1.9 3-.9 7.1-1.9 9-2.2 1.9-.3 3.8-.8 4.2-1 .3-.2 3.7-.7 7.5-1 3.7-.3 7-.8 7.2-1 .7-.6 31.1.3 34.1 1zM121.2 197.3c-4.4.8-9.7 5.3-11.2 9.3-1.6 4.1-1.2 16.9.6 20.7 1.8 3.8 6.8 7.6 11 8.3 1.6.2 3.5.7 4.2.9.6.2 1.2.1 1.2-.3s2.4-.6 5.2-.5c8 .3 10.2.3 11.8.2 1.5-.1 8.8 0 16.4.1 2.2.1 4.3.3 4.7.6.4.2 1 0 1.3-.5.4-.5 1.9-.7 3.4-.5 3.1.6 3.6.6 11.7.5 3.3-.1 7.1 0 8.5.2 1.4.2 3.6 0 5-.3 1.4-.4 3.6-.4 5 0s3.5.3 4.7-.1c1.2-.5 2.5-.4 2.8.1.3.4 1.7.5 3.2.1 1.4-.4 4.8-.4 7.5-.1 2.6.4 4.8.4 4.8.1 0-.3 2.4-.5 5.2-.4 8 .3 10.2.3 11.8.2 1.5-.1 8.8 0 16.4.1 2.2.1 4.3.3 4.7.6.4.2 1 0 1.3-.5.4-.5 1.9-.7 3.4-.5 3.1.6 3.6.6 11.7.5 3.3-.1 7.1 0 8.5.2 1.4.2 3.6 0 5-.3 1.4-.4 3.6-.4 5 0s3.5.3 4.7-.1c1.2-.5 2.5-.4 2.8.1.3.4 1.7.5 3.2.1 1.4-.4 4.8-.4 7.5-.1 2.6.4 4.8.4 4.8.1 0-.3 1.6-.7 3.6-.7 3.9-.2 7.6-2.5 10.8-6.7 2.3-3.1 3.2-16.1 1.5-21.4-1.4-4.4-6.6-9.1-10.8-10-5-.9-198-1-202.9 0zM105.8 242.8l-5.8.3.4 10.2c.2 5.6 1 12.4 1.6 15.2 1.9 7.7 7.5 18.8 12.7 25.2 6.6 8.1 16.3 17.3 18.3 17.3.6 0 1 .4 1 .8 0 .5 1 1.4 2.3 2.1 1.2.6 4.5 2.5 7.2 4.1 2.8 1.7 6 3.5 7.3 4 1.3.6 4.8 2.1 7.8 3.5 6.6 3 23.2 8 29.4 8.9 2.5.3 5.6.9 7 1.2 8.2 1.8 32.9 2.4 45 1.1 14.2-1.5 16.5-1.9 28.1-5.1 41-11.2 68.6-35.6 75.5-66.8.3-1.3.7-6.7.9-12.1l.3-9.7-5.6-.1c-21.6-.2-228.9-.3-233.4-.1zM317 269.5c-2.5 6.5-12.8 17.8-22 24.2-4 2.7-20.2 11.3-21.5 11.3-.3 0-1 .2-1.7.5-.7.2-3.1.9-5.3 1.6-2.2.7-4.4 1.4-5 1.5-.5.1-3.9.9-7.5 1.7-3.6.8-7.2 1.5-8 1.5-.8.1-3.1.4-5 .8-4.7.8-28 .9-35.5.1-27.5-3.1-51.8-13.4-66.9-28.3-3.8-3.8-11.6-14.9-11.6-16.6 0-.4 43-.8 95.5-.8H318l-1 2.5z"/></svg>